<?xml version="1.0" encoding="UTF-8"?>
<svg version="1.1" xmlns="http://www.w3.org/2000/svg" width="1080" height="1080">
<path d="M0 0 C356.4 0 712.8 0 1080 0 C1080 356.4 1080 712.8 1080 1080 C723.6 1080 367.2 1080 0 1080 C0 723.6 0 367.2 0 0 Z " fill="#000000" transform="translate(0,0)"/>
<path d="M0 0 C0.30292969 0.88042969 0.60585938 1.76085937 0.91796875 2.66796875 C3.88323111 11.38427618 3.88323111 11.38427618 10 18 C10.55171875 18.41378906 11.1034375 18.82757813 11.671875 19.25390625 C21.2133046 25.85799492 32.5035078 28.80503408 44 27 C48.9033977 25.48780527 53.48917406 23.24957645 58.0703125 20.96240234 C71.1334524 14.44735964 81.81017184 10.45657543 96.625 12.5 C105.17203127 16.29868057 112.48865994 22.45717623 118 30 C118 30.33 118 30.66 118 31 C104.14 31.33 90.28 31.66 76 32 C76.33 30.35 76.66 28.7 77 27 C53.45942488 37.8183901 36.87036065 52.46140474 27.609375 77.2734375 C26.02420225 81.62656817 24.49134947 85.99560577 22.98046875 90.375 C22.32384638 92.25124048 21.66408662 94.12638845 21 96 C20.6280249 97.05380859 20.6280249 97.05380859 20.24853516 98.12890625 C18.45969769 102.76561302 16.8377555 104.1622445 13 108 C11.515 96.615 11.515 96.615 10 85 C9.67 85 9.34 85 9 85 C-6.77297418 166.41629691 -6.77297418 166.41629691 -11 249 C-9.78763672 249.36351562 -9.78763672 249.36351562 -8.55078125 249.734375 C2.43433769 253.17964753 2.43433769 253.17964753 6 257 C6 257.66 6 258.32 6 259 C4.87980469 259.33773438 3.75960937 259.67546875 2.60546875 260.0234375 C1.13273364 260.47370046 -0.33991831 260.92423553 -1.8125 261.375 C-2.55048828 261.59671875 -3.28847656 261.8184375 -4.04882812 262.046875 C-4.76103516 262.26601563 -5.47324219 262.48515625 -6.20703125 262.7109375 C-6.8616333 262.90993652 -7.51623535 263.10893555 -8.19067383 263.31396484 C-10.29355136 264.03415708 -10.29355136 264.03415708 -13 266 C-11.80503906 266.17015625 -10.61007812 266.3403125 -9.37890625 266.515625 C12.00278517 269.7062515 12.00278517 269.7062515 18.90625 278.31640625 C21.03109524 281.58715018 21.11161437 284.40569378 21.0625 288.1875 C21.05347656 289.08855469 21.04445313 289.98960937 21.03515625 290.91796875 C21.02355469 291.60503906 21.01195312 292.29210937 21 293 C18.22667728 291.36863369 15.53698833 289.68515207 12.875 287.875 C8.0811342 284.74856578 3.5991638 284.06377618 -2 285 C-8.72358779 288.30089183 -13.96514991 294.39481296 -16.96484375 301.18359375 C-19.33643533 308.55794567 -19.57311734 316.24631796 -20.16113281 323.91748047 C-20.78876645 331.32838537 -21.49697877 339.49697877 -27 345 C-31.3640569 345.60893817 -34.52637266 344.80418608 -38.26953125 342.44921875 C-45.60891097 336.30269532 -50.01707393 325.3377977 -51 316 C-52.40256323 320.13756153 -53.78770097 324.25442603 -54.984375 328.45703125 C-55.48710937 330.21080078 -55.48710937 330.21080078 -56 332 C-56.309375 333.11375 -56.61875 334.2275 -56.9375 335.375 C-57.288125 336.24125 -57.63875 337.1075 -58 338 C-58.99 338.33 -59.98 338.66 -61 339 C-61.92694802 309.64854742 -56.56316605 287.5362321 -45.30767822 260.54896545 C-36.96898733 240.54318669 -32.30504858 220.18266437 -28 199 C-27.77151367 197.88093262 -27.54302734 196.76186523 -27.30761719 195.60888672 C-21.24541909 165.25324828 -19.81266877 134.30616644 -19.81469727 103.43041992 C-19.81249372 99.67680798 -19.79421834 95.92348282 -19.77539062 92.16992188 C-19.77245847 89.74218849 -19.77047249 87.31445373 -19.76953125 84.88671875 C-19.76234573 83.7853508 -19.75516022 82.68398285 -19.74775696 81.54924011 C-19.7699852 73.87584074 -20.64402521 66.54948519 -22 59 C-27.69693358 66.283164 -30.7351729 73.02509509 -33 82 C-33.99 82 -34.98 82 -36 82 C-42.78255903 74.434838 -40.4233207 61.47600036 -40 52 C-38.03014217 32.59690035 -25.50501022 15.40315247 -11.28515625 2.86328125 C-7.41851429 -0.28951912 -4.94202914 -0.09151906 0 0 Z " fill="#F70000" transform="translate(311,408)"/>
<path d="M0 0 C0.66 0 1.32 0 2 0 C4.15519644 14.84304642 3.80395619 29.49372147 0 44 C-0.35355132 45.99652512 -0.69281136 47.99581781 -1 50 C-0.45730469 49.07316406 0.08539062 48.14632812 0.64453125 47.19140625 C1.36672614 45.98149533 2.0894078 44.77187487 2.8125 43.5625 C3.16892578 42.95083984 3.52535156 42.33917969 3.89257812 41.70898438 C6.66015625 37.11328125 6.66015625 37.11328125 10 36 C10.36467236 56.50269072 10.36467236 56.50269072 8.4375 65.58984375 C7.98017169 68.10923275 7.92687317 70.44513136 8 73 C8.45890625 72.16855469 8.9178125 71.33710937 9.390625 70.48046875 C10.00421875 69.39378906 10.6178125 68.30710937 11.25 67.1875 C11.85328125 66.10855469 12.4565625 65.02960938 13.078125 63.91796875 C14.86936543 61.19834151 16.27758474 59.71656714 19 58 C19.64521796 73.30600391 17.4781229 88.73183664 14.5859375 103.7265625 C13.91190141 106.93793332 13.91190141 106.93793332 14 110 C15.60754096 107.94005539 17.2110805 105.87719524 18.8125 103.8125 C19.49022461 102.9452832 19.49022461 102.9452832 20.18164062 102.06054688 C22.20196891 99.45034172 24.03717817 96.93598518 25.69921875 94.07421875 C26.12847656 93.38972656 26.55773437 92.70523438 27 92 C27.66 92 28.32 92 29 92 C29.12519644 96.88882486 29.21507557 101.77668253 29.2746582 106.66674805 C29.29953915 108.3241403 29.3334573 109.98142594 29.37719727 111.63842773 C29.65871938 122.59129388 28.95828382 131.00629107 24 141 C24.6084375 140.38133057 25.216875 139.76266113 25.84375 139.12524414 C30.06911766 134.83816085 34.36784569 130.74631643 38.9453125 126.83984375 C42.16234099 123.95919656 45.13056038 120.83936295 48.1171875 117.72265625 C50 116 50 116 52 116 C52.92073307 135.30129335 48.07140488 154.78578535 42 173 C46.43489854 168.70639026 50.20300289 164.07617952 54.01171875 159.23046875 C54.66785156 158.49441406 55.32398438 157.75835938 56 157 C56.66 157 57.32 157 58 157 C58.73580755 171.96142023 55.09034631 186.61854059 51.0859375 200.92578125 C50.16203685 204.26002573 49.49065186 207.57088868 49 211 C53.47508907 206.94445053 56.77580878 202.26901535 60.23046875 197.328125 C62 195 62 195 64 194 C64.169053 199.36038881 63.61133467 204.19731056 62.5 209.4375 C62.32984375 210.24082764 62.1596875 211.04415527 61.984375 211.87182617 C60.38743538 218.98050037 58.27529899 225.89426135 56 232.8125 C55.66806641 233.83206787 55.33613281 234.85163574 54.99414062 235.90209961 C53.21093818 241.15755456 51.36648653 245.57397196 48 250 C44.65600602 248.88533534 44.34778264 248.44048566 42.546875 245.60546875 C42.09183594 244.89583984 41.63679687 244.18621094 41.16796875 243.45507812 C40.70003906 242.70677734 40.23210937 241.95847656 39.75 241.1875 C39.29753906 240.48173828 38.84507812 239.77597656 38.37890625 239.04882812 C36.89441651 236.71397942 35.4483314 234.35742724 34 232 C33.44401123 231.13584473 32.88802246 230.27168945 32.31518555 229.38134766 C27.38725028 221.44048851 24.25071215 213.22788004 21.17602539 204.45706177 C19.68660562 200.21908984 18.15103238 195.99797608 16.61328125 191.77734375 C16.30681671 190.9355809 16.00035217 190.09381805 15.68460083 189.22654724 C9.11209807 171.29556132 1.01422492 153.98438785 -6.88745117 136.61129761 C-35.58717377 73.45070608 -35.58717377 73.45070608 -29.25 54.28515625 C-25.94237352 45.59230041 -20.79265498 38.13524981 -15.61401367 30.48144531 C-10.13419396 22.3204987 -6.45817497 13.92681554 -3.11328125 4.6875 C-2 2 -2 2 0 0 Z " fill="#F60000" transform="translate(542,574)"/>
<path d="M0 0 C5.26331206 2.63165603 8.90022925 5.68887095 12.96484375 9.92578125 C14.90073265 11.89882733 16.90016757 13.70425289 19 15.5 C23.21560087 19.1275701 27.10745628 23.0316275 31 27 C31.845625 27.845625 32.69125 28.69125 33.5625 29.5625 C34.90691381 30.90691381 36.2486018 32.25413996 37.578125 33.61328125 C40.45815154 36.53871361 43.36539248 39.34816283 46.5 42 C55.37118638 49.65595537 63.83485159 58.17834512 71.40625 67.12109375 C73.35119431 69.41403054 75.36038811 71.64305841 77.375 73.875 C78.138125 74.72320313 78.90125 75.57140625 79.6875 76.4453125 C81.17932432 78.09337518 82.67880038 79.73455899 84.1875 81.3671875 C89.91060281 87.60128164 95.17365561 94.12706575 100.3269043 100.83251953 C101.61929502 102.50680012 102.92232246 104.17287343 104.22973633 105.83544922 C110.47828597 113.81399489 116.23108299 122.04430327 121.8125 130.5 C122.24509125 131.15262817 122.6776825 131.80525635 123.12338257 132.47766113 C136.20063328 152.21127056 148.27205976 172.43727033 160 193 C160.52980469 193.92844727 161.05960938 194.85689453 161.60546875 195.81347656 C162.6064537 197.56777345 163.60727168 199.32216562 164.60791016 201.07666016 C166.54845705 204.47636282 168.49425882 207.87304559 170.44042969 211.26953125 C171.54134323 213.19699166 172.6379406 215.12692045 173.73144531 217.05859375 C183.04702085 233.96080539 183.04702085 233.96080539 195 249 C195.53125488 249.55333008 196.06250977 250.10666016 196.60986328 250.67675781 C203.73452467 258.05116582 210.965863 265.40833006 219.140625 271.62890625 C231.367947 281.00183686 242.94563708 292.49994896 252 305 C252 305.33 252 305.66 252 306 C245.46853248 306.61451979 241.2282374 304.62618822 235.5 301.625 C234.62142334 301.17310303 233.74284668 300.72120605 232.83764648 300.25561523 C214.56539251 290.67509985 195.39428891 277.83469095 185.0078125 259.53125 C184.06838048 257.82533122 184.06838048 257.82533122 182 257 C181.71125 257.598125 181.4225 258.19625 181.125 258.8125 C180 261 180 261 178 264 C177.34 264 176.68 264 176 264 C174.31273163 257.75710703 172.87774699 251.59951618 172 245.1875 C171.30572373 240.29226392 170.2475009 236.39284267 168 232 C164.19757393 236.34562979 160.71337356 240.70071224 157.4921875 245.49609375 C156.99976563 245.99238281 156.50734375 246.48867188 156 247 C154.68 247 153.36 247 152 247 C151.98018066 246.40799805 151.96036133 245.81599609 151.93994141 245.20605469 C151.56480534 234.44939055 151.10231349 223.7155731 150.0625 213 C149.98789551 212.19530273 149.91329102 211.39060547 149.83642578 210.56152344 C149.34805754 205.83363952 148.44012893 201.53128434 147 197 C146.30132813 198.010625 145.60265625 199.02125 144.8828125 200.0625 C143.96389119 201.37524473 143.04460128 202.68773151 142.125 204 C141.66480469 204.66773438 141.20460938 205.33546875 140.73046875 206.0234375 C139.53694054 207.71859351 138.27309661 209.3637578 137 211 C136.34 211 135.68 211 135 211 C134.9906543 210.29617188 134.98130859 209.59234375 134.97167969 208.8671875 C134.64171313 189.04331418 132.44720775 173.02070988 124 155 C121.66847004 157.8360417 119.51805157 160.59212035 117.75 163.8125 C116.88375 165.3903125 116.88375 165.3903125 116 167 C112.36906917 164.57937945 112.11511033 163.26085443 110.73046875 159.19921875 C110.31917725 158.00329102 109.90788574 156.80736328 109.48413086 155.57519531 C109.05140672 154.27946837 108.61920653 152.98356634 108.1875 151.6875 C107.74195775 150.37455908 107.2960737 149.06173411 106.84985352 147.74902344 C103.60857716 138.14246647 100.71472896 128.45591684 98.05859375 118.671875 C97.38506605 115.22388106 97.38506605 115.22388106 96 114 C95.75765625 114.83144531 95.5153125 115.66289063 95.265625 116.51953125 C94.76289062 118.14955078 94.76289062 118.14955078 94.25 119.8125 C93.76273438 121.43091797 93.76273438 121.43091797 93.265625 123.08203125 C91.92105499 126.1820121 90.85625445 127.28984765 88 129 C85.53430002 122.62223971 83.43556006 116.19618396 81.5625 109.625 C79.44924501 102.23108593 76.91134846 95.12351218 74 88 C73.67 88 73.34 88 73 88 C72.67386719 89.18078125 72.34773437 90.3615625 72.01171875 91.578125 C71.57076271 93.13554421 71.12933147 94.69282892 70.6875 96.25 C70.47416016 97.02730469 70.26082031 97.80460938 70.04101562 98.60546875 C67.89008941 106.11765882 67.89008941 106.11765882 65 109 C64.34 109 63.68 109 63 109 C54.09 88.21 54.09 88.21 45 67 C44.34 67 43.68 67 43 67 C42.09795976 69.70612071 41.733784 71.8530608 41.46484375 74.66796875 C41.37783203 75.56064453 41.29082031 76.45332031 41.20117188 77.37304688 C41.11416016 78.30181641 41.02714844 79.23058594 40.9375 80.1875 C40.84662109 81.12787109 40.75574219 82.06824219 40.66210938 83.03710938 C40.43828717 85.3577922 40.21770754 87.67873689 40 90 C37.1640625 89.51171875 37.1640625 89.51171875 34 88 C32.77922577 85.14016596 32.03485075 82.80318826 31.375 79.8125 C31.17173096 78.99950439 30.96846191 78.18650879 30.7590332 77.34887695 C30.14981977 74.90413617 29.57191808 72.45369662 29 70 C23.33196304 46.60427299 13.90649003 24.4345008 1.12353516 4.02026367 C0 2 0 2 0 0 Z " fill="#F00000" transform="translate(525,447)"/>
<path d="M0 0 C6.06508154 2.02515565 8.69650533 5.68107052 12 11 C17.11082635 21.52390588 19.29245346 32.68753839 20.859375 44.1875 C24.16567507 68.42040824 28.94692096 92.41442628 46 111 C46.66386719 111.75539063 47.32773437 112.51078125 48.01171875 113.2890625 C61.36650336 127.65594724 81.13272925 135.76593428 99 143 C99.85078125 143.34546875 100.7015625 143.6909375 101.578125 144.046875 C107.45170719 146.30026188 113.44771408 147.99651978 119.5 149.6875 C157.48933796 160.3707048 157.48933796 160.3707048 174 170 C174.60054199 170.34498535 175.20108398 170.6899707 175.81982422 171.04541016 C195.30990562 182.4029396 209.79486124 199.26199772 222 218 C222.92619141 219.40185547 222.92619141 219.40185547 223.87109375 220.83203125 C228.65527634 229.43813874 227.42005986 239.46930855 227 249 C223.24245513 245.77350002 221.86903769 242.68067123 220.1875 238.0625 C213.30126448 220.08262435 203.52169201 206.44435202 188 195 C187.23945312 194.42507813 186.47890625 193.85015625 185.6953125 193.2578125 C180.18549514 189.31662641 174.43516705 187.04481944 168 185 C167.67 185.33 167.34 185.66 167 186 C167.61746094 186.63164062 168.23492188 187.26328125 168.87109375 187.9140625 C180.32681273 200.01492852 191.23086008 214.48569723 191.3125 231.875 C191.23437953 233.58472239 191.14058155 235.29427719 191 237 C186.35744206 232.69906425 182.80619826 227.81802035 179.125 222.6875 C172.50836891 213.47511363 165.74852218 205.25565509 157 198 C156.30777344 197.39671875 155.61554688 196.7934375 154.90234375 196.171875 C135.05539082 179.42281696 110.09432243 169.20189913 86.30859375 159.45678711 C54.07558709 146.20237115 28.94226552 125.79346374 15 93 C8.24307163 76.03268542 5.87273163 59.30178898 4.77075195 41.16430664 C4.0536637 29.69015146 2.66320253 18.3705245 1 7 C0.80290085 5.62246508 0.60622946 4.24486882 0.41015625 2.8671875 C0.27480469 1.92101562 0.13945313 0.97484375 0 0 Z " fill="#F00000" transform="translate(557,323)"/>
<path d="M0 0 C0.52877102 12.35757461 -1.26215484 23.68466256 -4.08984375 35.671875 C-7.2409863 49.19981617 -8.02157389 61.59020992 -6 75.375 C-4.93320803 83.0037138 -4.73982831 90.55069476 -4.6875 98.25 C-4.67009766 99.42224121 -4.65269531 100.59448242 -4.63476562 101.80224609 C-4.64300704 116.4163282 -8.48487238 131.71815577 -18.9375 142.5 C-29.44073276 152 -29.44073276 152 -33 152 C-32.70650145 144.64786135 -31.57108082 137.71297353 -29.9375 130.5625 C-28.1966403 122.87675713 -27.48912614 115.90435389 -28 108 C-33.30026742 113.76649464 -38.35797272 119.63962536 -43.203125 125.79296875 C-45.32061154 128.39379461 -47.55562162 130.70839527 -50 133 C-52.72991911 127.54016178 -50.91714534 121.19407065 -49.27734375 115.6640625 C-48.91471436 114.43236328 -48.55208496 113.20066406 -48.1784668 111.93164062 C-47.78600386 110.6209861 -47.39317663 109.3104406 -47 108 C-46.60887069 106.68432211 -46.21800234 105.36856661 -45.82739258 104.05273438 C-44.6434882 100.07423487 -43.44746902 96.09943362 -42.25 92.125 C-41.83454782 90.74351592 -41.41918286 89.36200561 -41.00390625 87.98046875 C-40.00360372 84.65334454 -39.00214149 81.32657084 -38 78 C-40.74270013 80.70205686 -43.42631707 83.3746452 -45.83203125 86.3828125 C-46.31696045 86.98794678 -46.80188965 87.59308105 -47.30151367 88.21655273 C-48.0494519 89.16123413 -48.0494519 89.16123413 -48.8125 90.125 C-49.33368408 90.77863525 -49.85486816 91.43227051 -50.3918457 92.10571289 C-54.27505572 97.00593985 -57.97790021 102.00583321 -61.57421875 107.12109375 C-62.27998047 108.05115234 -62.27998047 108.05115234 -63 109 C-63.33 109 -63.66 109 -64 109 C-64.39242115 102.67765928 -62.98678038 97.35012958 -61.1875 91.3125 C-60.88561768 90.28535889 -60.58373535 89.25821777 -60.27270508 88.19995117 C-56.31165228 75.16583431 -51.14543695 62.6019127 -46 50 C-45.33183813 48.33393219 -44.66466491 46.66746597 -44 45 C-44.81082031 45.94359375 -45.62164062 46.8871875 -46.45703125 47.859375 C-53.5026267 56.03628627 -60.65264787 64.09313007 -68 72 C-68.33 71.34 -68.66 70.68 -69 70 C-68.1706543 67.93139648 -68.1706543 67.93139648 -66.82421875 65.37109375 C-66.33091064 64.42661377 -65.83760254 63.48213379 -65.3293457 62.5090332 C-64.78753662 61.49542725 -64.24572754 60.48182129 -63.6875 59.4375 C-63.13860107 58.40133545 -62.58970215 57.3651709 -62.02416992 56.29760742 C-30.45806896 -2.87684909 -30.45806896 -2.87684909 0 0 Z " fill="#F40000" transform="translate(419,507)"/>
<path d="M0 0 C2 0 2 0 4.296875 2.19140625 C5.18890625 3.11824219 6.0809375 4.04507812 7 5 C7.85078125 5.79277344 8.7015625 6.58554687 9.578125 7.40234375 C16.77144962 14.22758889 22.07296808 21.41416989 27 30 C27.36786621 30.6408252 27.73573242 31.28165039 28.11474609 31.94189453 C35.44701828 44.87685698 40.41693346 57.4541229 40.3125 72.5 C40.30686035 73.36729736 40.3012207 74.23459473 40.29541016 75.12817383 C39.85346162 99.0787213 32.23392375 120.96547702 15 138 C3.65398626 148.42817786 -13.27300607 160.1097928 -29 161 C-22.88296458 153.59516764 -16.22247726 146.70461616 -8.9375 140.4375 C-5.91439071 137.8330698 -2.99226868 135.15080876 -0.125 132.375 C0.98488281 131.30378906 0.98488281 131.30378906 2.1171875 130.2109375 C4.0925226 127.89135313 5.04208292 125.87375125 6 123 C5.3709375 123.40992188 4.741875 123.81984375 4.09375 124.2421875 C-3.6096032 129.09158756 -9.83631296 131.38182029 -19 131 C-17.40447803 127.40158874 -15.18409154 124.57987093 -12.75 121.5 C-8.30204668 115.710501 -4.91630534 109.71124114 -2 103 C-1.48953125 101.82824219 -1.48953125 101.82824219 -0.96875 100.6328125 C1.28617119 94.76584162 1.31438187 89.22941849 1 83 C0.57589844 83.50789062 0.15179688 84.01578125 -0.28515625 84.5390625 C-5.28364026 90.40541516 -10.83025467 96.79248235 -18 100 C-20.8125 99.6875 -20.8125 99.6875 -23 99 C-21.69818129 95.51408734 -20.16123118 92.46317906 -18.1875 89.3125 C-13.19911305 81.04671872 -9.45392899 72.88153149 -6.3125 63.75 C-6.01480713 62.90526123 -5.71711426 62.06052246 -5.41040039 61.19018555 C-0.78138209 47.29261314 -0.63066866 33.11289099 -0.375 18.625 C-0.33671179 16.80987934 -0.29765429 14.99477473 -0.2578125 13.1796875 C-0.16302624 8.78659259 -0.0785793 4.39341345 0 0 Z " fill="#F50000" transform="translate(488,440)"/>
<path d="M0 0 C12.16466438 5.24750228 21.93647691 14.62095775 31.47314453 23.60107422 C33.13912838 25.12747132 34.85425108 26.5855243 36.57421875 28.05078125 C43.10239712 33.73387298 49.07588969 40.02106153 55.15478516 46.17529297 C60.69462643 51.77758276 66.22460053 57.30526006 72.22509766 62.42089844 C75.3476948 65.19902201 78.12752542 68.28631054 80.9375 71.375 C84.86490665 75.64223299 88.80371299 79.86741861 92.9375 83.9375 C98.29298628 89.2340268 103.09772664 94.92936827 107.95019531 100.68505859 C108.65547363 101.52157959 108.65547363 101.52157959 109.375 102.375 C109.84776367 102.93654785 110.32052734 103.4980957 110.80761719 104.07666016 C113.68616888 107.484227 116.6208203 110.8267048 119.625 114.125 C123.4685946 118.35773296 127.1045682 122.72667674 130.69921875 127.171875 C133.01581013 130.01943385 135.37973645 132.82203891 137.75 135.625 C142.88543463 141.77484147 147.73321413 148.12510913 152.57421875 154.5078125 C155.44184073 158.28355594 158.35949883 162.01727999 161.29052734 165.74389648 C167.9966469 174.2822336 174.36055787 183.00341394 180.54980469 191.921875 C181.9704793 193.95769694 183.40741963 195.98077351 184.8515625 198 C191.47546508 207.27323918 197.84025346 216.70237575 204.14306641 226.1965332 C211.96796043 237.98068504 220.01223471 249.60030315 228.125 261.1875 C228.72135254 262.04053711 229.31770508 262.89357422 229.93212891 263.77246094 C232.49779263 267.44013087 235.06759196 271.10349742 237.6796875 274.73828125 C252.07141219 294.88258474 252.07141219 294.88258474 251.9765625 304.3359375 C251.65104167 306.22395833 251.32552083 308.11197917 251 310 C246.57387887 305.86235976 243.10620784 301.27667985 239.5625 296.375 C238.31124783 294.66142188 237.05994435 292.94788124 235.80859375 291.234375 C235.17421387 290.36232422 234.53983398 289.49027344 233.88623047 288.59179688 C224.06037646 275.0904681 214.05150653 261.7381494 203.89892578 248.48095703 C202.12644226 246.16519751 200.35738098 243.8468797 198.58984375 241.52734375 C190.79243957 231.30006719 182.91628767 221.13547836 175 211 C174.49162598 210.34837891 173.98325195 209.69675781 173.45947266 209.02539062 C167.40383599 201.26742265 161.25314472 193.60028522 155 186 C148.31616617 177.87455495 141.72546408 169.70215603 135.375 161.3125 C129.13030899 153.07334265 122.80154147 144.73586689 115.4296875 137.46484375 C111.40803914 133.38500433 108.30216396 128.66555741 105 124 C104.01 122.65035156 104.01 122.65035156 103 121.2734375 C99.88796803 116.98142675 97.24307819 113.24855235 96 108 C95.29230469 108.14695312 94.58460938 108.29390625 93.85546875 108.4453125 C90.53674661 107.92775529 90.20034055 107.45321354 88.17578125 104.9296875 C87.20441919 103.59024433 86.25052007 102.23800059 85.3125 100.875 C84.82716797 100.20984375 84.34183594 99.5446875 83.84179688 98.859375 C81.12530387 95.03755036 79.22173345 91.58685893 78 87 C77.24074219 86.92652344 76.48148438 86.85304688 75.69921875 86.77734375 C72.23440106 85.77951637 71.6586825 84.60466705 69.8125 81.5625 C66.54697554 76.57566873 62.8077107 72.68937414 58.53515625 68.55859375 C55.2031069 65.19573963 52.30816733 61.55807399 49.35546875 57.86328125 C45.91541665 53.68159271 42.23449673 49.7393588 38.5546875 45.76953125 C35.93523025 42.92978325 33.39497222 40.03414254 30.8671875 37.11328125 C28.9608559 34.95569674 27.01156393 32.84124117 25.05419922 30.72998047 C20.23630627 25.53021148 15.65442347 20.21500502 11.21484375 14.68359375 C8.1668388 10.99050839 4.92386338 7.49130703 1.65234375 3.99609375 C0 2 0 2 0 0 Z " fill="#F00000" transform="translate(503,395)"/>
<path d="M0 0 C12.30731949 4.27701174 19.70852715 16.27243706 25.20263672 27.44580078 C31.4264271 40.69573452 36.49253054 54.40423371 41.48828125 68.15234375 C43.55325392 73.82395231 45.70856323 79.45534318 47.90258789 85.078125 C57.3662926 109.36044846 64.14277324 133.63966776 70 159 C70.16280457 159.70487549 70.32560913 160.40975098 70.49334717 161.13598633 C71.9950887 167.65401938 73.47015871 174.17810953 74.90625 180.7109375 C75.09509766 181.56993652 75.28394531 182.42893555 75.47851562 183.31396484 C76.89689897 190.61970152 77.17464558 197.65320476 77.203125 205.07421875 C77.20882507 206.23444046 77.21452515 207.39466217 77.22039795 208.59004211 C77.22981979 211.04008073 77.2363707 213.49013186 77.24023438 215.94018555 C77.24992213 219.65761845 77.28096612 223.3744939 77.3125 227.09179688 C77.3190329 229.48176758 77.32428225 231.87174221 77.328125 234.26171875 C77.3404718 235.35900803 77.3528186 236.4562973 77.36553955 237.58683777 C77.34419246 245.10978875 76.13465016 251.79138764 74 259 C73.34 259 72.68 259 72 259 C68.61996729 244.64013758 65.25341458 230.2782805 62.0625 215.875 C61.82450684 214.80403076 61.58651367 213.73306152 61.34130859 212.62963867 C60.06391403 206.8645884 58.80363403 201.09618851 57.56335449 195.32305908 C52.858188 173.24890762 52.858188 173.24890762 46.5 151.609375 C41.69949627 137.24637053 38.26211432 122.36828645 34.84350586 107.62597656 C33.19330033 100.59894688 31.25221154 93.67565763 29.23461914 86.74633789 C27.53166848 80.89268495 25.91532545 75.02350878 24.375 69.125 C24.16786377 68.33706055 23.96072754 67.54912109 23.74731445 66.73730469 C22.83044675 63.23700366 21.93571137 59.73518556 21.08203125 56.21875 C17.122726 40.31237083 10.77314243 25.23398362 3.88208008 10.39575195 C3.52009521 9.61417725 3.15811035 8.83260254 2.78515625 8.02734375 C2.46426025 7.34406006 2.14336426 6.66077637 1.81274414 5.95678711 C0.99587061 3.99005797 0.46129636 2.07626852 0 0 Z " fill="#F00000" transform="translate(444,649)"/>
<path d="M0 0 C12.80775324 3.52541378 19.64584226 15.23942838 26 26 C27.86614079 29.10955703 29.74388987 32.21197998 31.625 35.3125 C32.090271 36.08287598 32.55554199 36.85325195 33.03491211 37.64697266 C35.95978766 42.44370625 39.03598476 46.96696478 42.66015625 51.2734375 C44 53 44 53 45.06640625 55.16015625 C46.29301481 57.5774476 47.55557735 57.92157824 50 59 C52.1875 60.375 52.1875 60.375 54 62 C54.15662109 62.95519531 54.15662109 62.95519531 54.31640625 63.9296875 C54.83180169 66.18712316 54.83180169 66.18712316 57.046875 67.421875 C58.38492188 68.07929687 58.38492188 68.07929687 59.75 68.75 C64.07650223 70.95501272 68.12411333 73.34180447 72.1875 76 C93.82097483 89.43120949 119.11538114 92.17576192 144 93 C140.43878911 97.0055333 137.71687119 98.81721837 132.5625 100.25 C131.47066406 100.56453125 130.37882813 100.8790625 129.25390625 101.203125 C121.64319239 103.06697329 114.21777566 103.25202824 106.42480469 103.29516602 C104.98199643 103.30666572 103.53923005 103.3270861 102.09667969 103.35668945 C93.28187953 103.53705631 86.03818035 103.05229634 78 99 C77.67 99 77.34 99 77 99 C77.49113281 100.0725 77.98226562 101.145 78.48828125 102.25 C80.56451085 107.78661226 80.33004152 113.15945244 80.1875 119 C80.16719727 120.59134766 80.16719727 120.59134766 80.14648438 122.21484375 C80.11140879 124.81043687 80.06225844 127.40494067 80 130 C77.66608476 127.88459465 76.40943127 126.07129967 75.23828125 123.15625 C74.92818115 122.40964111 74.61808105 121.66303223 74.29858398 120.89379883 C73.97317627 120.10384521 73.64776855 119.3138916 73.3125 118.5 C66.40673743 102.39190358 56.57671176 92.2408599 41.93945312 82.98242188 C28.33641315 74.05508708 24.59348976 60.42655177 20.3046875 45.5 C15.65360761 29.37250361 10.28277131 14.49613735 0 1 C0 0.67 0 0.34 0 0 Z " fill="#EF0000" transform="translate(764,620)"/>
<path d="M0 0 C17.61826092 5.87275364 31.92284059 19.94683414 41.15625 36.01171875 C44.01425705 42.32315097 44.66646365 50.29454436 42.34667969 56.84472656 C40.54060984 60.97319227 38.35583132 64.90004047 36.17626953 68.84033203 C34.16916087 72.52544686 32.31957158 76.28190047 30.5 80.0625 C30.12447998 80.83980469 29.74895996 81.61710938 29.36206055 82.41796875 C25.9359013 89.72553696 23.34844059 97.2790451 21.00195312 104.99633789 C18.3043896 113.41580285 13.64546794 121.1712834 6 126 C3.1875 126.75 3.1875 126.75 1 127 C1.6100326 122.17925456 3.06653805 117.97454503 4.875 113.5 C7.78568975 106.06756329 9.52478448 98.8678161 11 91 C7.04 91.99 3.08 92.98 -1 94 C0.55503719 84.66977687 4.93146494 80.87633967 11.66015625 74.5625 C16.89534057 68.82914288 17.41841077 64.0496694 17.1875 56.625 C17.17396484 55.79355469 17.16042969 54.96210937 17.14648438 54.10546875 C17.11139059 52.07002934 17.05759228 50.03492709 17 48 C16.50628906 48.5775 16.01257813 49.155 15.50390625 49.75 C14.86324219 50.4925 14.22257812 51.235 13.5625 52 C12.92441406 52.7425 12.28632813 53.485 11.62890625 54.25 C10.82259766 55.11625 10.82259766 55.11625 10 56 C9.67 56 9.34 56 9 56 C8.68267362 48.22550376 9.88144701 40.67007765 11 33 C10.29423828 33.54140625 10.29423828 33.54140625 9.57421875 34.09375 C8.95160156 34.5578125 8.32898438 35.021875 7.6875 35.5 C7.07261719 35.9640625 6.45773437 36.428125 5.82421875 36.90625 C4 38 4 38 1 38 C0.67 25.46 0.34 12.92 0 0 Z " fill="#F00000" transform="translate(343,659)"/>
<path d="M0 0 C-3.19346522 4.01230245 -6.2717156 7.35114744 -10.375 10.4375 C-18.49286978 16.5667641 -24.43153316 23.50808806 -30 32 C-29.34 31.67 -28.68 31.34 -28 31 C-25.6670134 30.95977609 -23.33293334 30.95679753 -21 31 C-21.99904617 36.07848469 -23.22118819 40.78402387 -25.0625 45.625 C-30.62612028 60.53715695 -27.62703984 74.37451487 -22.0625 88.75 C-16.98052265 102.38215334 -14.44876568 114.42291459 -15 129 C-18.78890863 125.39344526 -21.92457801 121.64537142 -24.9375 117.375 C-25.58936279 116.45303833 -25.58936279 116.45303833 -26.25439453 115.51245117 C-36.23558729 101.18329187 -40.34732905 88.21532244 -42 71 C-44.31 76.28 -46.62 81.56 -49 87 C-49.66 87 -50.32 87 -51 87 C-52.23994395 83.15215399 -52.16173319 79.3030612 -52.16796875 75.3046875 C-52.17129715 74.55720245 -52.17462555 73.80971741 -52.17805481 73.0395813 C-52.18311033 71.45770887 -52.18546356 69.87582581 -52.18530273 68.29394531 C-52.18747356 65.90411141 -52.20559999 63.51475135 -52.22460938 61.125 C-52.29355772 43.18951943 -48.45391617 31.46311282 -36 18 C-25.60615287 8.48255714 -14.66493077 -0.78562129 0 0 Z " fill="#EA0000" transform="translate(383,300)"/>
<path d="M0 0 C0.66 0 1.32 0 2 0 C3.55347226 17.89369896 -3.07767473 33.83499262 -14.16015625 47.703125 C-27.82175621 63.41276023 -43.68365145 72.75535225 -63.0625 79.8671875 C-82.24318826 86.92708407 -96.9770995 96.0326301 -112 110 C-112.64453125 110.57878906 -113.2890625 111.15757812 -113.953125 111.75390625 C-118.73670404 116.24604875 -122.70049546 121.30845392 -126.6875 126.5 C-127.507948 127.56831055 -127.507948 127.56831055 -128.3449707 128.65820312 C-131.8397884 133.28321221 -135.01489437 138.03123274 -138 143 C-138.66 142.34 -139.32 141.68 -140 141 C-139.82838874 133.70652127 -137.71117566 128.22780895 -134.5 121.75 C-134.05003662 120.82904541 -133.60007324 119.90809082 -133.13647461 118.95922852 C-122.43159065 97.52878392 -106.67421504 79.44892101 -83.74609375 71.2421875 C-77.26008494 69.09145674 -70.73378365 67.13376444 -64.08666992 65.54174805 C-45.23231667 61.00634449 -28.68127241 52.67203947 -17.5 36.1875 C-10.61081376 24.7491599 -5.37070901 12.20531241 0 0 Z " fill="#EC0000" transform="translate(532,547)"/>
<path d="M0 0 C7.47083812 0.58980301 15.78332144 4.60943215 21 10 C21 11.32 21 12.64 21 14 C21.66 14.185625 22.32 14.37125 23 14.5625 C34.49405283 20.07006698 40.69633405 32.10968437 46.9909668 42.62744141 C60.05590086 64.4338281 75.94954954 81.4288457 98.375 93.6875 C112.09937493 101.24425398 118.81923606 110.96328795 125.6015625 125.09765625 C126.13686112 127.65344478 125.34302339 128.83087229 124 131 C122.89591797 129.58847656 122.89591797 129.58847656 121.76953125 128.1484375 C120.78390233 126.89058726 119.79822253 125.63277689 118.8125 124.375 C118.08836914 123.44880859 118.08836914 123.44880859 117.34960938 122.50390625 C116.3730937 121.25868493 115.39140243 120.01750638 114.40478516 118.78027344 C113.15990726 117.20264924 111.95745763 115.59174905 110.76171875 113.9765625 C102.73676695 104.59015122 90.19369638 100.05684315 79.22875977 95.05493164 C58.88699492 85.73341347 58.88699492 85.73341347 53.6875 76.0625 C53.130625 75.051875 52.57375 74.04125 52 73 C50.66824498 72.66041576 49.33482113 72.32732468 48 72 C46.15854187 69.61337335 44.57512856 67.30462507 43 64.75 C42.52506104 63.99855713 42.05012207 63.24711426 41.56079102 62.47290039 C37.31412346 55.67864857 33.36316955 48.71887091 29.41430664 41.74902344 C22.55548119 29.65475003 15.69146477 18.20444987 6.4453125 7.76953125 C4.21077244 5.23871831 2.08604911 2.65364852 0 0 Z " fill="#E80000" transform="translate(679,509)"/>
<path d="M0 0 C3.31756213 1.50243618 5.94915404 3.44872413 8.8125 5.6875 C19.43978578 13.50543654 32.18421492 18.60281244 44.859375 22.0703125 C58.97591637 25.94981771 73.06614887 30.89481969 84 41 C84.64324219 41.57621094 85.28648437 42.15242188 85.94921875 42.74609375 C91.65830837 48.12005861 94.87017574 53.10230691 96 61 C87.54691897 56.66457905 79.54162613 51.67248099 71.52661133 46.58325195 C66.79215183 43.60629117 62.21985691 41.01805943 57 39 C57.6496875 39.53109375 58.299375 40.0621875 58.96875 40.609375 C59.8040625 41.31578125 60.639375 42.0221875 61.5 42.75 C62.3353125 43.44609375 63.170625 44.1421875 64.03125 44.859375 C66 47 66 47 66 51 C66.969375 51.268125 67.93875 51.53625 68.9375 51.8125 C69.948125 52.204375 70.95875 52.59625 72 53 C72.33 53.99 72.66 54.98 73 56 C51.29366684 54.85756141 29.34825143 42.22047544 14.75 26.625 C11.24033157 22.51840026 8.35135974 18.11953646 5.54296875 13.51171875 C4.28919122 11.47075938 2.97601792 9.55432797 1.5625 7.625 C-0.13213841 4.77800746 -0.38270232 3.25296976 0 0 Z " fill="#EC0000" transform="translate(594,403)"/>
<path d="M0 0 C6.80953953 0.47666777 12.25653776 1.9075628 18.5 4.625 C19.33370117 4.98327881 20.16740234 5.34155762 21.02636719 5.71069336 C27.07949967 8.39945729 32.18301364 11.40631764 37 16 C37.59425781 16.495 38.18851563 16.99 38.80078125 17.5 C44.31785462 22.39319146 47.55835611 28.7285747 50.99169922 35.140625 C51.99834841 36.99695436 53.04188033 38.82748649 54.09765625 40.65625 C54.74605469 41.8009375 55.39445313 42.945625 56.0625 44.125 C56.65160156 45.15882813 57.24070312 46.19265625 57.84765625 47.2578125 C59 50 59 50 58.68359375 52.3671875 C58.45800781 52.90601563 58.23242188 53.44484375 58 54 C53.58594558 53.59872233 51.040988 51.79660605 47.6484375 49.15625 C45.88688064 47.803469 45.88688064 47.803469 43 47 C51.27401923 59.61903492 60.09987501 71.81826467 69 84 C68.01 84.495 68.01 84.495 67 85 C48.95371929 77.93007595 38.92862854 65.47551545 30.91357422 48.09863281 C29.55036629 44.96711614 28.3399809 41.78145623 27.11914062 38.59228516 C22.23239478 25.84978335 16.91629066 14.40255095 6.04296875 5.6484375 C3.87210855 3.89680652 1.94251563 1.99926327 0 0 Z " fill="#EC0000" transform="translate(492,307)"/>
<path d="M0 0 C12.08230052 3.65485155 20.96396575 11.04180847 26.9375 22.0625 C30.25016023 28.97933457 32.60522947 36.25243269 34.93334961 43.55102539 C37.98961 52.8434199 42.49354108 60.60868058 48.875 68 C53 72.79207921 53 72.79207921 53 75 C42.09628105 74.4724007 34.38622904 70.17499418 26.46875 62.74609375 C21.42019944 57.13038007 16.39909861 50.19729584 14 43 C13.34 47.62 12.68 52.24 12 57 C8.19550689 53.19550689 7.12093245 50.84473235 6.76953125 45.484375 C6.78371094 44.25203125 6.79789062 43.0196875 6.8125 41.75 C6.82216797 39.88601563 6.82216797 39.88601563 6.83203125 37.984375 C7 35 7 35 8 34 C9.53624473 24.50321437 6.45621381 17.2194081 2.62890625 8.78515625 C1.31743106 5.87947972 0.44185089 3.18008172 0 0 Z " fill="#EE0000" transform="translate(467,299)"/>
<path d="M0 0 C1.66289062 0.01027222 1.66289062 0.01027222 3.359375 0.02075195 C11.7943002 0.18557375 19.04031129 1.11902035 26.875 4.4375 C27.66003906 4.76492188 28.44507813 5.09234375 29.25390625 5.4296875 C39.49035182 10.44719391 48.15009444 19.04468379 55.25 27.8125 C55.73259277 28.39507568 56.21518555 28.97765137 56.71240234 29.57788086 C58.84237534 32.33256661 59.92047437 33.80928002 59.6640625 37.3515625 C59.40367187 38.03992188 59.14328125 38.72828125 58.875 39.4375 C58.18277344 38.90962891 58.18277344 38.90962891 57.4765625 38.37109375 C56.07082338 37.30706592 54.65718366 36.25344114 53.23828125 35.20703125 C51.75076343 34.09323692 50.28553866 32.9483725 48.85546875 31.76171875 C43.16673804 27.30298387 37.07114739 24.69102692 30.375 22.125 C29.49690674 21.78742676 28.61881348 21.44985352 27.71411133 21.10205078 C21.82413579 18.93220421 16.05547593 17.53242244 9.875 16.4375 C13.175 18.0875 16.475 19.7375 19.875 21.4375 C19.875 22.7575 19.875 24.0775 19.875 25.4375 C21.195 26.0975 22.515 26.7575 23.875 27.4375 C16.86490517 27.80192845 11.80765136 26.75695253 5.31640625 24.19140625 C4.44604233 23.86083725 3.57567841 23.53026825 2.67893982 23.18968201 C-0.07376054 22.14032509 -2.81795203 21.07047258 -5.5625 20 C-7.43112632 19.28446273 -9.30026305 18.5702569 -11.16992188 17.85742188 C-24.43456668 12.78271666 -24.43456668 12.78271666 -27.125 11.4375 C-25.11435625 6.31949773 -21.5698339 4.11043634 -16.703125 1.84375 C-11.22003259 -0.14073218 -5.77319253 -0.05434104 0 0 Z " fill="#EA0000" transform="translate(491.125,271.5625)"/>
<path d="M0 0 C20.14383222 16.92605123 36.69344706 35.13654209 41 62 C41.42469585 66.92640662 41.51043882 71.80721884 41.5 76.75 C41.52835937 77.98621094 41.55671875 79.22242188 41.5859375 80.49609375 C41.60245512 88.2676319 40.77745486 94.65689982 36 101 C34.37364803 102.38222098 32.71352344 103.72744628 31 105 C31.0314209 103.51173706 31.0314209 103.51173706 31.06347656 101.9934082 C31.13685595 98.24925651 31.18214836 94.50516574 31.21972656 90.76049805 C31.23962238 89.15166474 31.26674929 87.54290158 31.30175781 85.93432617 C31.6777107 68.19266705 28.06408845 54.42194019 15.5625 41.1875 C5.33756747 30.19351272 -0.50447449 17.35965462 -0.10546875 2.2734375 C-0.07066406 1.52320313 -0.03585937 0.77296875 0 0 Z " fill="#EB0000" transform="translate(421,244)"/>
<path d="M0 0 C25.70750704 -0.56777316 25.70750704 -0.56777316 35.515625 8.265625 C43.38798695 16.93017432 45.83480825 27.61736147 48.16503906 38.75488281 C50.97200832 51.99162474 56.16583585 63.76684638 62.10449219 75.88354492 C62.47993164 76.65158447 62.85537109 77.41962402 63.2421875 78.2109375 C63.5810498 78.89462402 63.91991211 79.57831055 64.26904297 80.28271484 C65 82 65 82 65 84 C56.0257702 81.47599787 50.68481241 73.81772448 46.1953125 66.16796875 C41.25840082 57.05770283 37.23168276 47.45029769 33 38 C23.2410806 15.88362822 23.2410806 15.88362822 3.4375 3.1875 C2.303125 2.795625 1.16875 2.40375 0 2 C0 1.34 0 0.68 0 0 Z " fill="#ED0000" transform="translate(645,511)"/>
<path d="M0 0 C3.02074067 1.09737845 5.82006735 2.40697018 8.625 3.9609375 C19.57597071 10.02356012 30.80704337 14.99853697 42.41992188 19.62451172 C48.54965482 22.08266663 54.61594883 24.63992869 60.57421875 27.48828125 C61.68756592 28.01591064 62.80091309 28.54354004 63.94799805 29.0871582 C68.99633677 32.25120379 72.22217286 36.73674858 75 42 C75 42.66 75 43.32 75 44 C52.59082912 42.64618682 30.22619969 37.22796053 13 22 C12.37609375 21.49210937 11.7521875 20.98421875 11.109375 20.4609375 C5.44222753 15.45906386 2.66337949 8.97551772 0 2 C0 1.34 0 0.68 0 0 Z " fill="#EB0000" transform="translate(581,362)"/>
<path d="M0 0 C0.66 0 1.32 0 2 0 C2.06993164 0.91249512 2.13986328 1.82499023 2.21191406 2.76513672 C3.563865 20.19052368 5.06025625 37.58042059 7.125 54.9375 C7.21108521 55.66555847 7.29717041 56.39361694 7.38586426 57.14373779 C8.25875968 64.96474744 8.25875968 64.96474744 9.5480957 72.72167969 C10.12264515 75.6183277 10.09491497 78.36273751 10.0625 81.3125 C10.05347656 82.38113281 10.04445313 83.44976562 10.03515625 84.55078125 C10.02355469 85.35902344 10.01195312 86.16726563 10 87 C8.35 87 6.7 87 5 87 C3.04997414 83.52771629 1.11735322 80.04602975 -0.8125 76.5625 C-1.35970703 75.58861328 -1.90691406 74.61472656 -2.47070312 73.61132812 C-8.10865879 63.39466906 -10.58685596 55.41315467 -10.5625 43.6875 C-10.5615332 42.55119141 -10.56056641 41.41488281 -10.55957031 40.24414062 C-10.33829217 29.43485478 -7.86793683 20.02654642 -4 10 C-3.57460938 8.86046875 -3.14921875 7.7209375 -2.7109375 6.546875 C-1.85361365 4.33880349 -0.96704695 2.16163437 0 0 Z " fill="#E90000" transform="translate(408,258)"/>
<path d="M0 0 C2.80855641 2.80855641 2.26871998 4.63037316 2.30859375 8.5625 C2.33106326 9.92155749 2.35403199 11.28060681 2.37744141 12.63964844 C2.38656555 13.35181519 2.3956897 14.06398193 2.40509033 14.79772949 C2.73819174 37.43231538 5.70533274 57.53621021 16 78 C16 78.66 16 79.32 16 80 C12.47221611 79.42340263 9.69221988 78.5363564 6.5625 76.8125 C5.84191406 76.42707031 5.12132812 76.04164063 4.37890625 75.64453125 C-1.91835875 71.29124953 -4.99427018 66.88319031 -7.3125 59.625 C-7.68858398 58.54992187 -7.68858398 58.54992187 -8.07226562 57.453125 C-13.08410929 42.56539637 -12.52508747 25.62720726 -7 11 C-2.96984925 2.96984925 -2.96984925 2.96984925 0 0 Z " fill="#E80000" transform="translate(393,326)"/>
<path d="M0 0 C0.66 0.33 1.32 0.66 2 1 C1.51764925 3.73332093 0.91352117 6.24862665 0 8.875 C-1.0899563 12.28111342 -1.72418878 15.45206482 -2 19 C-2.07734375 19.97710937 -2.1546875 20.95421875 -2.234375 21.9609375 C-2.92988867 38.84646384 3.69828119 54.71327422 13 68.5625 C15 72 15 72 14.625 74.71484375 C14.315625 75.84599609 14.315625 75.84599609 14 77 C7.56890225 73.90872355 2.54515062 70.07279723 -2.640625 65.18359375 C-4.97628826 62.95085393 -4.97628826 62.95085393 -7.625 61.0078125 C-10.06625742 58.94398633 -11.2835633 57.25134444 -12.75 54.4375 C-13.15734375 53.67308594 -13.5646875 52.90867187 -13.984375 52.12109375 C-17.90860168 43.92549727 -17.17052455 32.16172776 -15.19921875 23.46875 C-11.95559886 15.17578368 -6.32454395 6.32454395 0 0 Z " fill="#ED0000" transform="translate(328,344)"/>
<path d="M0 0 C0.99 1.0209375 0.99 1.0209375 2 2.0625 C2.99515133 3.04659409 3.99570298 4.02524113 5 5 C5.5465625 5.53109375 6.093125 6.0621875 6.65625 6.609375 C15.59914881 14.87018831 26.14386245 20.39745003 37.26342773 25.12280273 C41.63912415 27.05462888 44.43137683 28.77874646 47 33 C47.37309899 34.65821773 47.70700977 36.32577014 48 38 C48.79297467 40.76567011 48.79297467 40.76567011 51 43 C57.27916017 45.77190739 64.2670848 46.85929949 71 48 C71 48.66 71 49.32 71 50 C59.64224267 52.53103581 44.56848411 54.72459556 34 49 C33.01 48.34 32.02 47.68 31 47 C30.59375 44.35546875 30.59375 44.35546875 30.5 41.1875 C30.35992465 36.48913919 29.74980433 33.83586783 27 30 C24.7250314 28.38358984 24.7250314 28.38358984 22.0703125 27.16796875 C21.10996094 26.67876953 20.14960938 26.18957031 19.16015625 25.68554688 C17.14764191 24.69224025 15.13203061 23.70518218 13.11328125 22.72460938 C6.89352476 19.5397943 2.60094277 16.68070241 0 10 C-0.48828125 7.03125 -0.48828125 7.03125 -0.3125 4.5 C-0.26738281 3.6440625 -0.22226562 2.788125 -0.17578125 1.90625 C-0.11777344 1.2771875 -0.05976563 0.648125 0 0 Z " fill="#E40000" transform="translate(259,749)"/>
<path d="M0 0 C2.02259203 0.99654454 4.0432041 1.99680226 6.0625 3 C6.74497803 3.3388623 7.42745605 3.67772461 8.13061523 4.02685547 C13.26198155 6.59118098 18.35560215 9.22232262 23.4375 11.8828125 C24.78501343 12.58605525 26.13258907 13.28917879 27.48022461 13.9921875 C29.49886136 15.04527952 31.5161723 16.10052537 33.52932739 17.1640625 C42.8132664 22.06753803 52.17813493 26.28560652 62 30 C58.95396624 33.04603376 56.14205999 33.90304609 51.87109375 34.265625 C34.19471418 34.18518641 21.3700854 31.02798661 8.35546875 18.4453125 C2.738683 12.61428783 0.2047234 8.20754739 0 0 Z " fill="#E90000" transform="translate(812,654)"/>
<path d="M0 0 C10.73968032 4.11467541 19.01318449 11.01216393 27.45654297 18.61914062 C28.71265352 19.74292444 29.99525939 20.83703867 31.28515625 21.921875 C40.9783055 30.59993059 50.33413446 46.17730008 53 59 C53.11731034 61.18524616 53.17505201 63.37414273 53.1875 65.5625 C53.20167969 66.69816406 53.21585937 67.83382812 53.23046875 69.00390625 C53 72 53 72 51 75 C46.94523728 68.0570683 43.02105682 61.09048044 39.36743164 53.92797852 C34.60935959 44.62968288 29.29318689 36.33450633 23 28 C22.08400147 26.76995417 21.17387041 25.5355181 20.26953125 24.296875 C19.85936768 23.73838867 19.4492041 23.17990234 19.02661133 22.60449219 C18 21 18 21 17 18 C16.278125 17.5875 15.55625 17.175 14.8125 16.75 C11.65751132 14.78689594 9.87683902 12.62758881 7.55859375 9.7734375 C6.02689705 8.03060466 4.45399652 6.670162 2.625 5.25 C1.75875 4.5075 0.8925 3.765 0 3 C0 2.01 0 1.02 0 0 Z " fill="#E50000" transform="translate(427,366)"/>
<path d="M0 0 C10.76228288 0.68331955 19.2355544 4.37750039 27 12 C36.38775606 23.57267758 38.6476209 36.2611043 38.25 50.8125 C38.23195313 52.08931641 38.21390625 53.36613281 38.1953125 54.68164062 C38.14876649 57.7885869 38.08340346 60.8938625 38 64 C35.62545715 61.73448006 34.53414465 60.23269919 33.625 57.0625 C28.34318227 40.24194201 20.16476316 25.53924696 9 12 C8.12100697 10.92715443 7.24210028 9.85423811 6.36328125 8.78125 C4.78898011 6.86342004 3.20779582 4.95120192 1.6171875 3.046875 C0 1 0 1 0 0 Z " fill="#E90000" transform="translate(728,610)"/>
<path d="M0 0 C4.15619169 1.48325057 7.70861418 3.5869328 11.375 6 C11.98512939 6.39590332 12.59525879 6.79180664 13.22387695 7.19970703 C16.36489704 9.24507838 19.4833749 11.32072579 22.58203125 13.4296875 C29.56091607 18.17095846 36.63426731 22.64587742 43.9375 26.875 C44.71826904 27.3272998 45.49903809 27.77959961 46.3034668 28.24560547 C51.12444714 31.00589341 56.00982679 33.55884587 61 36 C61 36.66 61 37.32 61 38 C42.83044727 38.97919745 28.56289785 34.14568699 14.75390625 21.80078125 C10.85924968 17.80203586 7.44987108 13.38088989 4 9 C3.25105469 8.14535156 2.50210937 7.29070312 1.73046875 6.41015625 C0 4 0 4 0 0 Z " fill="#E20000" transform="translate(271,294)"/>
<path d="M0 0 C5.67961727 1.9615173 8.72017122 5.0276176 12 10 C15.91902536 19.10313962 16.61451021 29.56477344 13.03515625 38.87109375 C9.77116261 45.58383538 5.10890248 51.23542681 -2 54 C-5.5 53.8125 -5.5 53.8125 -8 53 C-7.30590193 49.42793431 -5.82384801 46.57830048 -4.125 43.375 C3.11289818 28.95140003 3.28745385 15.76216714 0 0 Z " fill="#E80000" transform="translate(325,706)"/>
<path d="M0 0 C4.33179266 2.16589633 6.11640944 4.18119088 9 8 C11.78684649 16.36053947 10.91837171 27.13616725 7.1328125 35.01171875 C4.75819535 39.17958126 3.28086743 41.48272661 -1.25 43.3125 C-2.61125 43.6528125 -2.61125 43.6528125 -4 44 C-5.28516012 41.42967976 -5.38643444 39.21882205 -5.68359375 36.35546875 C-5.80669922 35.20240234 -5.92980469 34.04933594 -6.05664062 32.86132812 C-6.18232422 31.64896484 -6.30800781 30.43660156 -6.4375 29.1875 C-7.38603271 20.07857479 -8.52521217 11.03978117 -10 2 C-3.125 7.875 -3.125 7.875 -2 9 C-1.34 6.03 -0.68 3.06 0 0 Z " fill="#E70000" transform="translate(438,304)"/>
<path d="M0 0 C15.0010321 9.93085086 24.60972274 25.69933903 34.25 40.5 C37.31450853 45.16758127 40.71597543 49.28339686 44.53125 53.35546875 C46 55 46 55 46 56 C41.4382248 56.69882514 37.60189034 56.82403767 33.42578125 54.67578125 C19.54836426 44.28405769 12.58804231 27.06167864 5 12 C4.51466797 11.05560059 4.02933594 10.11120117 3.52929688 9.13818359 C3.07103516 8.2405127 2.61277344 7.3428418 2.140625 6.41796875 C1.72844727 5.61512451 1.31626953 4.81228027 0.89160156 3.98510742 C0 2 0 2 0 0 Z " fill="#E00000" transform="translate(260,294)"/>
<path d="M0 0 C3.96438721 1.73653713 5.82462178 3.62806633 8.015625 7.3203125 C10.39438681 13.79583075 10.25832174 22.44789549 8 29 C3.67405892 35.48891163 -2.61538143 40.40199986 -10 43 C-13 43.25 -13 43.25 -15 43 C-14.4342152 38.49061074 -12.51781095 35.17949277 -10.1875 31.375 C-4.22338068 21.23546677 -1.41508248 11.71166949 0 0 Z " fill="#E10000" transform="translate(296,365)"/>
<path d="M0 0 C0.66 0 1.32 0 2 0 C2.85757468 5.760807 3.10510341 11.18760683 2.8125 17 C2.79380859 17.75539063 2.77511719 18.51078125 2.75585938 19.2890625 C2.37717139 27.02226982 -0.67578794 33.362599 -6 39 C-10.28232015 42.42585612 -13.54434081 43.56354727 -19 44 C-18.44555923 39.34445768 -16.33704555 35.97616276 -13.9375 32.0625 C-8.48417882 22.84899034 -5.09174193 12.99810952 -1.70507812 2.87915039 C-1 1 -1 1 0 0 Z " fill="#E50000" transform="translate(379,739)"/>
<path d="M0 0 C0.66 0 1.32 0 2 0 C2.0501123 0.91700684 2.10022461 1.83401367 2.15185547 2.77880859 C2.34374114 6.22709425 2.54209052 9.67488838 2.74462891 13.12255859 C2.83049834 14.60613794 2.91389438 16.08986283 2.99462891 17.57373047 C3.56990066 32.04506069 3.56990066 32.04506069 7.625 45.8125 C8.95241613 48.88969194 9.29925908 50.70815015 9 54 C8.34 54 7.68 54 7 54 C-1.99686161 43.19208183 -5.76447762 31.63575684 -5.40234375 17.671875 C-4.71692125 11.41656291 -2.81021719 5.62043437 0 0 Z " fill="#CC0000" transform="translate(301,710)"/>
<path d="M0 0 C1.91015625 1.09765625 1.91015625 1.09765625 4.53515625 3.09765625 C4.53515625 4.08765625 4.53515625 5.07765625 4.53515625 6.09765625 C-5.03484375 6.42765625 -14.60484375 6.75765625 -24.46484375 7.09765625 C-22.46484375 2.09765625 -22.46484375 2.09765625 -19.7734375 0.3125 C-13.65418077 -1.93435814 -6.1834637 -2.26367689 0 0 Z " fill="#EB0000" transform="translate(425.46484375,443.90234375)"/>
<path d="M0 0 C1.32 0.99 2.64 1.98 4 3 C3.64606658 8.89889027 2.28564461 11.90482848 -2 16 C-6.37302398 18.09144625 -10.1961445 18.19215422 -15 18 C-14.34 17.38125 -13.68 16.7625 -13 16.125 C-8.12785357 11.26681387 -3.81183389 5.71775083 0 0 Z " fill="#D50000" transform="translate(430,460)"/>
<path d="M0 0 C0.66 0 1.32 0 2 0 C3.43069422 7.29654052 2.33979115 13.73633891 1 21 C-0.65 21.33 -2.3 21.66 -4 22 C-5.45084796 19.69571206 -6.06814955 18.48546036 -5.68359375 15.74609375 C-4.92324883 12.69167959 -3.99977968 9.7346364 -3 6.75 C-2.649375 5.69296875 -2.29875 4.6359375 -1.9375 3.546875 C-1 1 -1 1 0 0 Z " fill="#D20303" transform="translate(379,739)"/>
<path d="M0 0 C2 3 2 3 1.75 5.5625 C1 8 1 8 -1 10 C-4.125 10.125 -4.125 10.125 -7 10 C-7.33 9.34 -7.66 8.68 -8 8 C-5.33333333 5.33333333 -2.66666667 2.66666667 0 0 Z " fill="#F70000" transform="translate(430,465)"/>
<path d="M0 0 C2.31 0.33 4.62 0.66 7 1 C6.67 3.31 6.34 5.62 6 8 C3.69 7.67 1.38 7.34 -1 7 C-0.67 4.69 -0.34 2.38 0 0 Z " fill="#C60000" transform="translate(417,455)"/>
<path d="M0 0 C1.98 0.99 3.96 1.98 6 3 C6 3.99 6 4.98 6 6 C-2.57142857 6.14285714 -2.57142857 6.14285714 -6 5 C-5.67 4.01 -5.34 3.02 -5 2 C-3.35 2 -1.7 2 0 2 C0 1.34 0 0.68 0 0 Z " fill="#C70000" transform="translate(424,444)"/>
<path d="M0 0 C2.375 0.25 2.375 0.25 5 1 C6.375 2.875 6.375 2.875 7 5 C6.67 5.99 6.34 6.98 6 8 C1.2 4.55384615 1.2 4.55384615 0.1875 1.75 C0.125625 1.1725 0.06375 0.595 0 0 Z " fill="#C40404" transform="translate(616,528)"/>
<path d="M0 0 C0.66 0 1.32 0 2 0 C2.33 2.64 2.66 5.28 3 8 C2.34 7.34 1.68 6.68 1 6 C0.67 6.66 0.34 7.32 0 8 C-0.99 7.67 -1.98 7.34 -3 7 C-2.01 4.69 -1.02 2.38 0 0 Z " fill="#B40202" transform="translate(379,739)"/>
</svg>
